<svg width="110" height="103" viewBox="0 0 110 103" fill="none" xmlns="http://www.w3.org/2000/svg">
<ellipse cx="17.3252" cy="27.9109" rx="12.6049" ry="21.7885" fill="url(#paint0_linear_32_2249)"/>
<ellipse cx="92.5945" cy="27.9109" rx="12.6049" ry="21.7885" fill="url(#paint1_linear_32_2249)"/>
<ellipse cx="55.14" cy="57.8024" rx="50.4196" ry="45.1976" fill="url(#paint2_linear_32_2249)"/>
<path fill-rule="evenodd" clip-rule="evenodd" d="M81.5215 96.3266C95.9434 88.3734 105.56 74.0946 105.56 57.8024C105.56 32.8405 82.9859 12.6049 55.14 12.6049C27.294 12.6049 4.72034 32.8405 4.72034 57.8024C4.72034 72.9912 13.0781 86.4301 25.896 94.6251C15.136 86.99 8.2389 75.2145 8.2389 62.0033C8.2389 38.9872 29.1725 20.329 54.9955 20.329C80.8184 20.329 101.752 38.9872 101.752 62.0033C101.752 76.2398 93.7429 88.809 81.5215 96.3266Z" fill="#F2C4A9"/>
<path fill-rule="evenodd" clip-rule="evenodd" d="M7.80704 42.1956C6.82293 44.5932 6.05903 47.0863 5.53737 49.6551C2.58406 44.3826 0.784912 37.3869 0.784912 29.7116C0.784912 13.3023 9.00816 0 19.1521 0C26.2785 0 32.4571 6.56551 35.5022 16.1613C33.2043 17.0332 30.9935 18.0535 28.8847 19.2088C26.9414 11.5064 22.4971 6.12243 17.3253 6.12243C10.3638 6.12243 4.72037 15.8775 4.72037 27.9109C4.72037 33.3758 5.88431 38.3708 7.80704 42.1956Z" fill="#F2C4A9"/>
<path fill-rule="evenodd" clip-rule="evenodd" d="M61.0298 58.6287C58.0267 54.5621 51.9454 54.5621 48.9424 58.6287L38.269 73.082C37.8874 73.5987 37.5841 74.1376 37.3537 74.6887L46.6696 65.4269C50.8067 61.3139 59.1843 61.3139 63.3213 65.4269L72.6049 74.6564C72.3762 74.1166 72.0772 73.5886 71.7032 73.082L61.0298 58.6287Z" fill="#BD8B7D"/>
<ellipse cx="35.5782" cy="56.1753" rx="5.04196" ry="6.12238" transform="rotate(-4 35.5782 56.1753)" fill="#322D31"/>
<ellipse cx="74.4733" cy="56.1585" rx="5.04196" ry="6.12238" transform="rotate(4 74.4733 56.1585)" fill="#322D31"/>
<ellipse cx="54.8594" cy="73.8286" rx="7.92308" ry="5.76224" fill="#322D31"/>
<path fill-rule="evenodd" clip-rule="evenodd" d="M109.187 29.7116C109.187 37.1915 107.478 44.0258 104.658 49.2489C101.443 34.2016 89.904 21.805 74.5027 16.0578C77.5593 6.51833 83.719 0 90.8199 0C100.964 0 109.187 13.3023 109.187 29.7116ZM105.199 27.9109C105.199 33.1886 104.114 38.0281 102.308 41.7985C98.2709 32.2431 90.7246 24.2345 81.079 19.0369C83.0448 11.4265 87.4613 6.12243 92.5946 6.12243C99.5561 6.12243 105.199 15.8775 105.199 27.9109Z" fill="#F2C4A9"/>
<defs>
<linearGradient id="paint0_linear_32_2249" x1="17.3252" y1="6.12244" x2="17.3252" y2="49.6994" gradientUnits="userSpaceOnUse">
<stop stop-color="#BD8B7D"/>
<stop offset="0.479167" stop-color="#D2A79B"/>
</linearGradient>
<linearGradient id="paint1_linear_32_2249" x1="92.5945" y1="6.12244" x2="92.5945" y2="49.6994" gradientUnits="userSpaceOnUse">
<stop stop-color="#BD8B7D"/>
<stop offset="0.479167" stop-color="#D2A79B"/>
</linearGradient>
<linearGradient id="paint2_linear_32_2249" x1="55.14" y1="12.6049" x2="55.14" y2="103" gradientUnits="userSpaceOnUse">
<stop offset="0.526042" stop-color="#D2A79B"/>
<stop offset="1" stop-color="#A87567"/>
</linearGradient>
</defs>
</svg>
