<svg width="110" height="103" fill="none" xmlns="http://www.w3.org/2000/svg"><ellipse cx="17.325" cy="27.911" rx="12.605" ry="21.788" fill="url(#prefix__paint0_linear_32_2249)"/><ellipse cx="92.594" cy="27.911" rx="12.605" ry="21.788" fill="url(#prefix__paint1_linear_32_2249)"/><ellipse cx="55.14" cy="57.802" rx="50.42" ry="45.198" fill="url(#prefix__paint2_linear_32_2249)"/><path fill-rule="evenodd" clip-rule="evenodd" d="M81.522 96.327c14.421-7.954 24.038-22.232 24.038-38.525 0-24.962-22.574-45.197-50.42-45.197S4.72 32.84 4.72 57.802c0 15.19 8.358 28.628 21.176 36.823-10.76-7.635-17.657-19.41-17.657-32.622 0-23.016 20.933-41.674 46.757-41.674 25.822 0 46.756 18.658 46.756 41.674 0 14.237-8.01 26.806-20.23 34.324z" fill="#F2C4A9"/><path fill-rule="evenodd" clip-rule="evenodd" d="M7.807 42.196a41.26 41.26 0 00-2.27 7.46C2.584 44.382.785 37.385.785 29.711.785 13.302 9.008 0 19.152 0c7.127 0 13.305 6.566 16.35 16.161a52.638 52.638 0 00-6.617 3.048c-1.944-7.703-6.388-13.087-11.56-13.087-6.961 0-12.605 9.755-12.605 21.789 0 5.465 1.164 10.46 3.087 14.285z" fill="#F2C4A9"/><path fill-rule="evenodd" clip-rule="evenodd" d="M61.03 58.629c-3.003-4.067-9.085-4.067-12.088 0L38.27 73.082a7.705 7.705 0 00-.915 1.607l9.316-9.262c4.137-4.113 12.514-4.113 16.651 0l9.284 9.23a7.72 7.72 0 00-.902-1.575L61.03 58.629z" fill="#BD8B7D"/><ellipse cx="35.578" cy="56.175" rx="5.042" ry="6.122" transform="rotate(-4 35.578 56.175)" fill="#322D31"/><ellipse cx="74.473" cy="56.158" rx="5.042" ry="6.122" transform="rotate(4 74.473 56.158)" fill="#322D31"/><ellipse cx="54.859" cy="73.829" rx="7.923" ry="5.762" fill="#322D31"/><path fill-rule="evenodd" clip-rule="evenodd" d="M109.187 29.712c0 7.48-1.709 14.314-4.529 19.537-3.215-15.047-14.754-27.444-30.155-33.191C77.559 6.518 83.719 0 90.82 0c10.144 0 18.367 13.302 18.367 29.712zm-3.988-1.801c0 5.278-1.085 10.117-2.891 13.887-4.037-9.555-11.583-17.564-21.229-22.761 1.966-7.61 6.382-12.915 11.516-12.915 6.961 0 12.604 9.755 12.604 21.789z" fill="#F2C4A9"/><defs><linearGradient id="prefix__paint0_linear_32_2249" x1="17.325" y1="6.122" x2="17.325" y2="49.699" gradientUnits="userSpaceOnUse"><stop stop-color="#BD8B7D"/><stop offset=".479" stop-color="#D2A79B"/></linearGradient><linearGradient id="prefix__paint1_linear_32_2249" x1="92.594" y1="6.122" x2="92.594" y2="49.699" gradientUnits="userSpaceOnUse"><stop stop-color="#BD8B7D"/><stop offset=".479" stop-color="#D2A79B"/></linearGradient><linearGradient id="prefix__paint2_linear_32_2249" x1="55.14" y1="12.605" x2="55.14" y2="103" gradientUnits="userSpaceOnUse"><stop offset=".526" stop-color="#D2A79B"/><stop offset="1" stop-color="#A87567"/></linearGradient></defs></svg>