<svg width="64" height="40" xmlns="http://www.w3.org/2000/svg"><path d="M63 1H1.32v37.804H63z" fill="#fff"/><path clip-rule="evenodd" d="M46.977 24H17.023c4.408-.636 9.522-1 14.977-1s10.57.364 14.977 1z" fill="#5c9e31" fill-rule="evenodd"/><path d="M46.977 24v1a1 1 0 00.143-1.99zm-29.954 0l-.142-.99a1 1 0 00.142 1.99zm29.954-1H17.023v2h29.954zM32 22c-5.497 0-10.66.367-15.12 1.01l.286 1.98C21.521 24.36 26.588 24 32 24zm15.12 1.01C42.66 22.367 37.497 22 32 22v2c5.412 0 10.479.361 14.834.99z" fill="#5c9e31"/><path d="M1 32h62v7H1z" fill="#ea5a47"/><path d="M12.5 7l.561 1.728h1.817l-1.47 1.067.562 1.728-1.47-1.068-1.47 1.068.562-1.728-1.47-1.068h1.817z" fill="#ea5a47" stroke="#ea5a47" stroke-linejoin="round"/><path d="M21.5 16.5l-2 1.5.5.5.827-.05v1c3.58 0 2.943-2.618 5.673-1.45 0 0-1.085 4.105-3.527 4.431l.006.631c1.172 0 .328-.022 1.5-.022 2.055-1.288 3.654-2.478 5.021-4.04.693 2.12 3.358 2.12 1.5 3.5h1.757s.184-.172.502-.61c.317-.438-1.297-2.92-1.297-2.92s2.538.53 3.538.03c-.796 1.963 1.982 3.222-1 3.6l.5.4h1.5s1.816-2.203 2.132-3.55c.55 2.895 5.15 1.24 2.368 3.55h1l1.5-1c-1.92-2-1.533-9.477-7.031-9.477-2.5 0-2.969.477-3.969.477S29 12 28 12s-4.151 1.86-4.5 2c-.349.14-1.173.541-1.173.541-.5 0-1.5 1.5-1.5 1.5z" fill="#a57939" stroke="#a57939" stroke-linejoin="round"/><g fill="none" stroke-linecap="round"><path d="M36.5 28.5H49m-34 0h16.5" stroke="#a57939" stroke-width="3"/><path d="M63 1H1v38h62z" stroke="#000" stroke-linejoin="round" stroke-width="2"/></g></svg>