<?xml version="1.0" encoding="UTF-8" standalone="no"?>
<svg
   viewBox="0 0 64 40"
   version="1.1"
   id="svg20"
   sodipodi:docname="california-flag.svg"
   width="64"
   height="40"
   inkscape:version="1.1 (c68e22c387, 2021-05-23)"
   xmlns:inkscape="http://www.inkscape.org/namespaces/inkscape"
   xmlns:sodipodi="http://sodipodi.sourceforge.net/DTD/sodipodi-0.dtd"
   xmlns="http://www.w3.org/2000/svg"
   xmlns:svg="http://www.w3.org/2000/svg">
  <defs
     id="defs24" />
  <sodipodi:namedview
     id="namedview22"
     pagecolor="#505050"
     bordercolor="#ffffff"
     borderopacity="1"
     inkscape:pageshadow="0"
     inkscape:pageopacity="0"
     inkscape:pagecheckerboard="1"
     showgrid="false"
     fit-margin-top="0"
     fit-margin-left="0"
     fit-margin-right="0"
     fit-margin-bottom="0"
     inkscape:zoom="12.125"
     inkscape:cx="31.917526"
     inkscape:cy="19.958763"
     inkscape:window-width="3840"
     inkscape:window-height="2066"
     inkscape:window-x="-11"
     inkscape:window-y="-11"
     inkscape:window-maximized="1"
     inkscape:current-layer="svg20" />
  <path
     d="M 63,1 H 1.31909 V 38.8044 H 63 Z"
     fill="#ffffff"
     id="path2" />
  <path
     clip-rule="evenodd"
     d="M 46.9767,24 H 17.0233 c 4.4073,-0.6361 9.522,-1 14.9767,-1 5.4547,0 10.5694,0.3639 14.9767,1 z"
     fill="#5c9e31"
     fill-rule="evenodd"
     id="path4" />
  <path
     d="m 46.9767,24 v 1 c 0.5245,0 0.9599,-0.4052 0.9974,-0.9284 0.0376,-0.5232 -0.3354,-0.9864 -0.8546,-1.0613 z m -29.9534,0 -0.1428,-0.9897 c -0.5191,0.0749 -0.8922,0.5381 -0.8546,1.0613 C 16.0634,24.5948 16.4988,25 17.0233,25 Z M 46.9767,23 H 17.0233 v 2 H 46.9767 Z M 32,22 c -5.4971,0 -10.6599,0.3666 -15.1195,1.0103 l 0.2857,1.9794 C 21.5212,24.3612 26.5878,24 32,24 Z m 15.1195,1.0103 C 42.6599,22.3666 37.4972,22 32,22 v 2 c 5.4122,0 10.4788,0.3612 14.8339,0.9897 z"
     fill="#5c9e31"
     id="path6" />
  <path
     d="m 1,32 h 62 v 7 H 1 Z"
     fill="#ea5a47"
     id="path8" />
  <path
     d="m 12.5,7 0.5613,1.7275 h 1.8163 L 13.4082,9.7951 13.9695,11.5225 12.5,10.4549 11.0305,11.5225 11.5918,9.7951 10.1224,8.7275 h 1.8163 z"
     fill="#ea5a47"
     stroke="#ea5a47"
     stroke-linejoin="round"
     id="path10" />
  <path
     d="m 21.5,16.5 -2,1.5 0.5,0.5 0.8271,-0.0497 v 1 c 3.5803,0 2.9428,-2.6187 5.6729,-1.4503 0,0 -1.0849,4.1054 -3.5267,4.4315 l 0.0056,0.6306 c 1.1716,0 0.3285,-0.0218 1.5001,-0.0218 C 26.5344,21.752 28.1332,20.5621 29.5,19 c 0.6926,2.12 3.3577,2.12 1.5,3.5 h 1.7574 c 0,0 0.184,-0.1723 0.5014,-0.61 0.3174,-0.4377 -1.2968,-2.9192 -1.2968,-2.9192 0,0 2.538,0.5292 3.538,0.0292 -0.7961,1.9627 1.9817,3.222 -1,3.6 L 35,23 h 1.5 c 0,0 1.8158,-2.2027 2.1319,-3.5497 C 39.1828,22.3454 43.7828,20.6894 41,23 h 1 l 1.5,-1 C 41.5794,20 41.9673,12.5227 36.4686,12.5227 33.9686,12.5227 33.5,13 32.5,13 31.5,13 29,12 28,12 c -1,0 -4.1511,1.8594 -4.5,2 -0.3489,0.1406 -1.1729,0.541 -1.1729,0.541 -0.5,0 -1.5,1.5 -1.5,1.5 z"
     fill="#a57939"
     stroke="#a57939"
     stroke-linejoin="round"
     id="path12" />
  <g
     fill="none"
     stroke-linecap="round"
     id="g18"
     transform="translate(-4,-16)">
    <path
       d="M 40.5,44.5 H 53 m -34,0 h 16.5"
       stroke="#a57939"
       stroke-width="3"
       id="path14" />
    <path
       d="M 67,17 H 5 v 38 h 62 z"
       stroke="#000000"
       stroke-linejoin="round"
       stroke-width="2"
       id="path16" />
  </g>
</svg>
