<svg width="1376" height="655" viewBox="0 0 1376 655" fill="none" xmlns="http://www.w3.org/2000/svg">
<g opacity="0.3">
<path fill-rule="evenodd" clip-rule="evenodd" d="M866.192 654.44C964.172 600.405 1029.5 503.396 1029.5 392.709C1029.5 223.118 876.137 85.6372 686.951 85.6372C497.766 85.6372 344.401 223.118 344.401 392.709C344.401 495.899 401.181 587.201 488.262 642.878C415.162 591.004 368.306 511.004 368.306 421.25C368.306 264.879 510.529 138.115 685.97 138.115C861.411 138.115 1003.63 264.879 1003.63 421.25C1003.63 517.971 949.221 603.365 866.192 654.44Z" fill="#140F13"/>
<path fill-rule="evenodd" clip-rule="evenodd" d="M365.372 286.676C358.686 302.966 353.496 319.904 349.952 337.356C329.887 301.535 317.664 254.006 317.664 201.86C317.664 90.3758 373.533 0 442.45 0C490.867 0 532.844 44.6059 553.533 109.8C533.913 117.244 515.228 126.281 497.68 136.728C501.264 134.594 504.896 132.519 508.573 130.505C495.37 78.1746 465.176 41.5957 430.039 41.5957C382.742 41.5957 344.401 107.871 344.401 189.626C344.401 226.755 352.309 260.691 365.372 286.676Z" fill="#140F13"/>
<path fill-rule="evenodd" clip-rule="evenodd" d="M1054.15 201.86C1054.15 252.679 1042.54 299.111 1023.38 334.597C1001.53 232.366 923.138 148.143 818.502 109.097C839.269 44.2855 881.117 0 929.36 0C998.278 0 1054.15 90.3758 1054.15 201.86ZM1027.06 189.626C1027.06 225.483 1019.68 258.363 1007.41 283.979C979.983 219.06 928.713 164.649 863.181 129.337C876.536 77.6313 906.542 41.5957 941.418 41.5957C988.714 41.5957 1027.06 107.871 1027.06 189.626Z" fill="#140F13"/>
<path fill-rule="evenodd" clip-rule="evenodd" d="M1016.86 475.655C1019.64 466.737 1021.99 457.655 1023.88 448.429L1038.13 429.129C1054.92 406.389 1088.93 406.389 1105.72 429.129L1165.41 509.95C1167.5 512.783 1169.17 515.736 1170.45 518.754L1118.54 467.143C1095.4 444.144 1048.55 444.144 1025.42 467.143L1016.86 475.655ZM1053.87 215.512C1059.85 215.147 1065.89 214.961 1071.98 214.961C1216.38 214.961 1333.43 319.296 1333.43 447.999C1333.43 527.608 1288.65 597.894 1220.31 639.932C1300.95 595.458 1354.73 515.613 1354.73 424.508C1354.73 408.156 1352.99 392.166 1349.68 376.679C1365.46 347.472 1375.01 309.255 1375.01 267.428C1375.01 175.669 1329.03 101.284 1272.3 101.284C1232.6 101.284 1198.15 137.734 1181.06 191.078C1147.72 178.638 1111.15 171.769 1072.79 171.769C1066.08 171.769 1059.42 171.979 1052.83 172.392C1053.7 182.011 1054.15 191.851 1054.15 201.86C1054.15 206.448 1054.05 211 1053.87 215.512ZM906.497 628.431C906.45 628.466 906.403 628.502 906.356 628.537C907.318 629.168 908.283 629.794 909.254 630.414C908.33 629.759 907.411 629.098 906.497 628.431ZM1352.71 257.359C1352.71 286.871 1346.64 313.933 1336.54 335.017C1313.97 281.584 1271.77 236.801 1217.83 207.737C1228.83 165.18 1253.52 135.52 1282.23 135.52C1321.15 135.52 1352.71 190.069 1352.71 257.359ZM1209.02 417.282C1207.7 436.144 1194.04 450.554 1178.51 449.468C1162.97 448.382 1151.45 432.211 1152.77 413.349C1154.09 394.487 1167.75 380.077 1183.28 381.163C1198.82 382.25 1210.34 398.421 1209.02 417.282ZM1071.22 546.347C1095.69 546.347 1115.52 531.921 1115.52 514.125C1115.52 496.329 1095.69 481.903 1071.22 481.903C1046.75 481.903 1026.91 496.329 1026.91 514.125C1026.91 531.921 1046.75 546.347 1071.22 546.347Z" fill="#140F13"/>
<path fill-rule="evenodd" clip-rule="evenodd" d="M319.008 172.123C314.021 171.888 309 171.769 303.947 171.769C264.993 171.769 227.884 178.851 194.135 191.656C177.107 137.998 142.557 101.284 102.707 101.284C45.9834 101.284 0 175.669 0 267.428C0 310.347 10.0606 349.466 26.575 378.949C23.5739 393.727 22.0064 408.954 22.0064 424.508C22.0064 509.441 68.7411 584.589 140.415 630.415C80.2485 587.72 41.6816 521.874 41.6816 447.999C41.6816 319.296 158.74 214.961 303.139 214.961C308.105 214.961 313.039 215.085 317.937 215.328C317.756 210.877 317.664 206.386 317.664 201.86C317.664 191.757 318.123 181.828 319.008 172.123ZM468.868 629.52C468.58 629.307 468.292 629.093 468.004 628.878C462.663 632.751 457.147 636.439 451.468 639.932C457.418 636.651 463.221 633.177 468.868 629.52ZM349.613 446.368C351.448 455.703 353.754 464.891 356.507 473.914L349.696 467.143C326.563 444.144 279.716 444.144 256.582 467.143L204.489 518.934C205.777 515.853 207.473 512.839 209.606 509.95L269.291 429.129C286.084 406.389 320.09 406.389 336.882 429.129L349.613 446.368ZM39.2665 337.237C60.1164 286.439 98.6445 243.302 148.164 213.82C151.114 212.064 154.104 210.356 157.13 208.698C146.264 165.627 121.412 135.52 92.4915 135.52C53.5636 135.52 22.0064 190.069 22.0064 257.359C22.0064 287.918 28.5149 315.849 39.2665 337.237ZM196.948 449.562C212.481 448.476 224.004 432.305 222.685 413.443C221.366 394.581 207.705 380.171 192.171 381.258C176.638 382.344 165.115 398.515 166.434 417.376C167.753 436.238 181.414 450.648 196.948 449.562ZM302.379 546.347C326.848 546.347 346.684 531.921 346.684 514.125C346.684 496.329 326.848 481.903 302.379 481.903C277.91 481.903 258.074 496.329 258.074 514.125C258.074 531.921 277.91 546.347 302.379 546.347Z" fill="#140F13"/>
</g>
</svg>
