<svg width="1376" height="655" fill="none" xmlns="http://www.w3.org/2000/svg"><g opacity=".3" fill-rule="evenodd" clip-rule="evenodd" fill="#140F13"><path d="M866.192 654.44c97.98-54.035 163.308-151.044 163.308-261.731 0-169.591-153.363-307.072-342.549-307.072-189.185 0-342.55 137.481-342.55 307.072 0 103.19 56.78 194.492 143.861 250.169-73.1-51.874-119.956-131.874-119.956-221.628 0-156.371 142.223-283.135 317.664-283.135 175.441 0 317.66 126.764 317.66 283.135 0 96.721-54.409 182.115-137.438 233.19z"/><path d="M365.372 286.676a280.338 280.338 0 00-15.42 50.68c-20.065-35.821-32.288-83.35-32.288-135.496C317.664 90.376 373.533 0 442.45 0c48.417 0 90.394 44.606 111.083 109.8-19.62 7.444-38.305 16.481-55.853 26.928a349.005 349.005 0 0110.893-6.223c-13.203-52.33-43.397-88.91-78.534-88.91-47.297 0-85.638 66.276-85.638 148.031 0 37.129 7.908 71.065 20.971 97.05zM1054.15 201.86c0 50.819-11.61 97.251-30.77 132.737-21.85-102.231-100.242-186.454-204.878-225.5C839.269 44.286 881.117 0 929.36 0c68.918 0 124.79 90.376 124.79 201.86zm-27.09-12.234c0 35.857-7.38 68.737-19.65 94.353-27.427-64.919-78.697-119.33-144.229-154.642 13.355-51.706 43.361-87.741 78.237-87.741 47.296 0 85.642 66.275 85.642 148.03z"/><path d="M1016.86 475.655c2.78-8.918 5.13-18 7.02-27.226l14.25-19.3c16.79-22.74 50.8-22.74 67.59 0l59.69 80.821a43.292 43.292 0 015.04 8.804l-51.91-51.611c-23.14-22.999-69.99-22.999-93.12 0l-8.56 8.512zm37.01-260.143c5.98-.365 12.02-.551 18.11-.551 144.4 0 261.45 104.335 261.45 233.038 0 79.609-44.78 149.895-113.12 191.933 80.64-44.474 134.42-124.319 134.42-215.424 0-16.352-1.74-32.342-5.05-47.829 15.78-29.207 25.33-67.424 25.33-109.251 0-91.759-45.98-166.144-102.71-166.144-39.7 0-74.15 36.45-91.24 89.794-33.34-12.44-69.91-19.309-108.27-19.309-6.71 0-13.37.21-19.96.623a327.28 327.28 0 011.32 29.468c0 4.588-.1 9.14-.28 13.652zM906.497 628.431l-.141.106c.962.631 1.927 1.257 2.898 1.877a246.744 246.744 0 01-2.757-1.983zm446.213-371.072c0 29.512-6.07 56.574-16.17 77.658-22.57-53.433-64.77-98.216-118.71-127.28 11-42.557 35.69-72.217 64.4-72.217 38.92 0 70.48 54.549 70.48 121.839zm-143.69 159.923c-1.32 18.862-14.98 33.272-30.51 32.186-15.54-1.086-27.06-17.257-25.74-36.119 1.32-18.862 14.98-33.272 30.51-32.186 15.54 1.087 27.06 17.258 25.74 36.119zm-137.8 129.065c24.47 0 44.3-14.426 44.3-32.222s-19.83-32.222-44.3-32.222-44.31 14.426-44.31 32.222 19.84 32.222 44.31 32.222zM319.008 172.123a319.946 319.946 0 00-15.061-.354c-38.954 0-76.063 7.082-109.812 19.887-17.028-53.658-51.578-90.372-91.428-90.372C45.983 101.284 0 175.669 0 267.428c0 42.919 10.06 82.038 26.575 111.521a228.672 228.672 0 00-4.569 45.559c0 84.933 46.735 160.081 118.409 205.907-60.166-42.695-98.733-108.541-98.733-182.416 0-128.703 117.058-233.038 261.457-233.038 4.966 0 9.9.124 14.798.367a331.497 331.497 0 01-.273-13.468c0-10.103.459-20.032 1.344-29.737zm149.86 457.397l-.864-.642a261.88 261.88 0 01-16.536 11.054 286.679 286.679 0 0017.4-10.412zM349.613 446.368a278.328 278.328 0 006.894 27.546l-6.811-6.771c-23.133-22.999-69.98-22.999-93.114 0l-52.093 51.791a43.109 43.109 0 015.117-8.984l59.685-80.821c16.793-22.74 50.799-22.74 67.591 0l12.731 17.239zM39.267 337.237c20.85-50.798 59.377-93.935 108.897-123.417 2.95-1.756 5.94-3.464 8.966-5.122-10.866-43.071-35.718-73.178-64.638-73.178-38.928 0-70.486 54.549-70.486 121.839 0 30.559 6.509 58.49 17.26 79.878zm157.681 112.325c15.533-1.086 27.056-17.257 25.737-36.119-1.319-18.862-14.98-33.272-30.514-32.185-15.533 1.086-27.056 17.257-25.737 36.118 1.319 18.862 14.98 33.272 30.514 32.186zm105.431 96.785c24.469 0 44.305-14.426 44.305-32.222s-19.836-32.222-44.305-32.222-44.305 14.426-44.305 32.222 19.836 32.222 44.305 32.222z"/></g></svg>