<svg width="413" height="210" viewBox="0 0 413 210" fill="none" xmlns="http://www.w3.org/2000/svg">
<g opacity="0.6">
<ellipse cx="155.269" cy="77.2029" rx="21.3174" ry="36.8487" fill="url(#paint0_linear_106_2054)"/>
<path fill-rule="evenodd" clip-rule="evenodd" d="M183.33 80.2482C183.33 92.8984 180.44 104.457 175.67 113.29C174.651 108.519 173.136 103.905 171.177 99.4929C171.353 99.8902 171.526 100.289 171.695 100.69C174.75 94.3132 176.586 86.1287 176.586 77.2029C176.586 56.852 167.042 40.3543 155.269 40.3543C146.587 40.3543 139.118 49.3245 135.794 62.1953C132.246 60.2837 128.531 58.597 124.672 57.1571C129.841 41.0238 140.259 30 152.268 30C169.423 30 183.33 52.4969 183.33 80.2482Z" fill="#7A8B92"/>
<path fill-rule="evenodd" clip-rule="evenodd" d="M58.7139 57.3319C32.6669 67.2149 13.237 88.3711 8.03702 113.976C3.04259 105.059 0 93.2285 0 80.2482C0 52.4969 13.9072 30 31.0625 30C43.1148 30 53.5639 41.1035 58.7139 57.3319ZM47.5219 62.4859C31.2409 71.4055 18.5568 85.0827 11.8753 101.361C8.6236 94.8926 6.65519 86.4451 6.65519 77.2029C6.65519 56.852 16.1993 40.3542 27.9726 40.3542C36.7192 40.3542 44.2354 49.4597 47.5219 62.4859Z" fill="#7B8B92"/>
<ellipse cx="27.9727" cy="77.2029" rx="21.3174" ry="36.8487" fill="url(#paint1_linear_106_2054)"/>
<ellipse cx="91.925" cy="127.756" rx="85.2697" ry="76.4382" fill="url(#paint2_linear_106_2054)"/>
<path fill-rule="evenodd" clip-rule="evenodd" d="M136.54 192.908C160.931 179.458 177.195 155.309 177.195 127.756C177.195 85.5399 139.018 51.3173 91.925 51.3173C44.8318 51.3173 6.65527 85.5399 6.65527 127.756C6.65527 153.442 20.7892 176.169 42.4657 190.029C24.2694 177.116 12.6057 157.202 12.6057 134.86C12.6057 95.9352 48.0087 64.3803 91.6805 64.3803C135.352 64.3803 170.755 95.9352 170.755 134.86C170.755 158.937 157.21 180.195 136.54 192.908Z" fill="#7B8B92"/>
<path fill-rule="evenodd" clip-rule="evenodd" d="M58.7139 57.3319C32.6669 67.2149 13.237 88.3711 8.03702 113.976C3.04259 105.059 0 93.2285 0 80.2482C0 52.4969 13.9072 30 31.0625 30C43.1148 30 53.5639 41.1035 58.7139 57.3319ZM47.5219 62.4859C31.2409 71.4055 18.5568 85.0827 11.8753 101.361C8.6236 94.8926 6.65519 86.4451 6.65519 77.2029C6.65519 56.852 16.1993 40.3542 27.9726 40.3542C36.7192 40.3542 44.2354 49.4597 47.5219 62.4859Z" fill="#7B8B92"/>
<path fill-rule="evenodd" clip-rule="evenodd" d="M101.886 129.153C96.8073 122.275 86.5226 122.275 81.4439 129.153L63.393 153.596C62.7475 154.47 62.2344 155.382 61.8447 156.314L77.6008 140.65C84.5973 133.694 98.7656 133.694 105.762 140.65L121.461 156.258C121.075 155.345 120.569 154.453 119.937 153.596L101.886 129.153Z" fill="#5D7179"/>
<ellipse cx="58.8427" cy="125.004" rx="8.52697" ry="10.3542" transform="rotate(-4 58.8427 125.004)" fill="#15313D"/>
<ellipse cx="124.622" cy="124.975" rx="8.52697" ry="10.3542" transform="rotate(4 124.622 124.975)" fill="#15313D"/>
<ellipse cx="91.4508" cy="154.859" rx="13.3995" ry="9.74511" fill="#15313D"/>
<ellipse cx="256.973" cy="77.203" rx="21.3174" ry="36.8487" fill="url(#paint3_linear_106_2054)"/>
<ellipse cx="384.269" cy="77.203" rx="21.3174" ry="36.8487" fill="url(#paint4_linear_106_2054)"/>
<ellipse cx="320.925" cy="127.756" rx="85.2698" ry="76.4383" fill="url(#paint5_linear_106_2054)"/>
<path fill-rule="evenodd" clip-rule="evenodd" d="M365.54 192.909C389.931 179.458 406.195 155.309 406.195 127.756C406.195 85.5399 368.018 51.3173 320.925 51.3173C273.832 51.3173 235.655 85.5399 235.655 127.756C235.655 153.442 249.789 176.17 271.466 190.029C253.269 177.116 241.606 157.202 241.606 134.86C241.606 95.9352 277.009 64.3804 320.681 64.3804C364.352 64.3804 399.755 95.9352 399.755 134.86C399.755 158.937 386.21 180.195 365.54 192.909Z" fill="#9C2E34"/>
<path fill-rule="evenodd" clip-rule="evenodd" d="M287.714 57.3319C261.667 67.2149 242.237 88.3711 237.037 113.976C232.043 105.059 229 93.2286 229 80.2483C229 52.4969 242.907 30 260.063 30C272.115 30 282.564 41.1035 287.714 57.3319ZM276.522 62.486C260.241 71.4055 247.557 85.0827 240.875 101.361C237.624 94.8927 235.655 86.4452 235.655 77.203C235.655 56.852 245.199 40.3542 256.973 40.3542C265.719 40.3542 273.235 49.4597 276.522 62.486Z" fill="#9C2E34"/>
<path fill-rule="evenodd" clip-rule="evenodd" d="M330.886 129.153C325.807 122.276 315.523 122.276 310.444 129.153L292.393 153.597C291.748 154.471 291.234 155.382 290.845 156.315L306.601 140.65C313.597 133.694 327.766 133.694 334.762 140.65L350.462 156.258C350.075 155.346 349.569 154.453 348.937 153.596L330.886 129.153Z" fill="#872F34"/>
<ellipse cx="287.843" cy="125.004" rx="8.52698" ry="10.3542" transform="rotate(-4 287.843 125.004)" fill="#3F3030"/>
<ellipse cx="353.622" cy="124.975" rx="8.52698" ry="10.3542" transform="rotate(4 353.622 124.975)" fill="#3F3030"/>
<ellipse cx="320.451" cy="154.859" rx="13.3995" ry="9.74512" fill="#3F3030"/>
<path fill-rule="evenodd" clip-rule="evenodd" d="M412.33 80.2483C412.33 92.8984 409.44 104.457 404.67 113.29C399.233 87.842 379.719 66.8767 353.672 57.1571C358.841 41.0238 369.259 30 381.268 30C398.423 30 412.33 52.4969 412.33 80.2483ZM405.586 77.203C405.586 86.1287 403.75 94.3132 400.696 100.69C393.869 84.5297 381.106 70.9855 364.794 62.1953C368.118 49.3245 375.587 40.3543 384.269 40.3543C396.042 40.3543 405.586 56.852 405.586 77.203Z" fill="#9C2E34"/>
</g>
<ellipse cx="129.296" cy="56.9057" rx="25.6993" ry="44.4231" fill="url(#paint6_linear_106_2054)"/>
<ellipse cx="282.757" cy="56.9057" rx="25.6993" ry="44.4231" fill="url(#paint7_linear_106_2054)"/>
<ellipse cx="206.393" cy="117.85" rx="102.797" ry="92.1504" fill="url(#paint8_linear_106_2054)"/>
<path fill-rule="evenodd" clip-rule="evenodd" d="M260.181 196.394C289.585 180.179 309.191 151.067 309.191 117.85C309.191 66.9563 263.167 25.6992 206.393 25.6992C149.62 25.6992 103.596 66.9563 103.596 117.85C103.596 148.816 120.636 176.215 146.768 192.924C124.831 177.357 110.77 153.349 110.77 126.414C110.77 79.4884 153.45 41.4474 206.099 41.4474C258.748 41.4474 301.428 79.4884 301.428 126.414C301.428 155.44 285.098 181.067 260.181 196.394Z" fill="#F2C4A9"/>
<path fill-rule="evenodd" clip-rule="evenodd" d="M109.89 86.0298C107.883 90.9182 106.326 96.0011 105.262 101.238C99.2409 90.4887 95.5728 76.2258 95.5728 60.577C95.5728 27.1212 112.339 0 133.02 0C147.55 0 160.147 13.386 166.356 32.9502C161.671 34.7279 157.163 36.8082 152.864 39.1636C148.901 23.4597 139.84 12.4826 129.296 12.4826C115.102 12.4826 103.596 32.3715 103.596 56.9057C103.596 68.0478 105.969 78.2317 109.89 86.0298Z" fill="#F2C4A9"/>
<path fill-rule="evenodd" clip-rule="evenodd" d="M218.402 119.534C212.279 111.243 199.88 111.243 193.758 119.534L171.996 149.002C171.218 150.056 170.6 151.154 170.13 152.278L189.124 133.395C197.559 125.009 214.639 125.009 223.074 133.395L242.001 152.212C241.535 151.111 240.926 150.035 240.163 149.002L218.402 119.534Z" fill="#BD8B7D"/>
<ellipse cx="166.511" cy="114.532" rx="10.2797" ry="12.4825" transform="rotate(-4 166.511 114.532)" fill="#322D31"/>
<ellipse cx="245.811" cy="114.498" rx="10.2797" ry="12.4825" transform="rotate(4 245.811 114.498)" fill="#322D31"/>
<ellipse cx="205.822" cy="150.524" rx="16.1539" ry="11.7483" fill="#322D31"/>
<path fill-rule="evenodd" clip-rule="evenodd" d="M316.587 60.577C316.587 75.8273 313.103 89.7613 307.353 100.41C306.234 95.1761 304.622 90.0991 302.561 85.22C306.243 77.5328 308.456 67.666 308.456 56.9057C308.456 32.3715 296.95 12.4826 282.757 12.4826C272.291 12.4826 263.287 23.2966 259.279 38.8131C255.002 36.5086 250.523 34.4751 245.871 32.7392C252.103 13.2898 264.662 0 279.139 0C299.821 0 316.587 27.1212 316.587 60.577Z" fill="#F2C4A9"/>
<defs>
<linearGradient id="paint0_linear_106_2054" x1="155.269" y1="40.3542" x2="155.269" y2="114.052" gradientUnits="userSpaceOnUse">
<stop stop-color="#87A1B1"/>
<stop offset="1" stop-color="#CFD8DC"/>
</linearGradient>
<linearGradient id="paint1_linear_106_2054" x1="27.9727" y1="40.3542" x2="27.9727" y2="114.052" gradientUnits="userSpaceOnUse">
<stop stop-color="#87A1B1"/>
<stop offset="1" stop-color="#CFD8DC"/>
</linearGradient>
<linearGradient id="paint2_linear_106_2054" x1="91.925" y1="51.3173" x2="91.925" y2="204.194" gradientUnits="userSpaceOnUse">
<stop stop-color="#CFD8DC"/>
<stop offset="1" stop-color="#87A1B1"/>
</linearGradient>
<linearGradient id="paint3_linear_106_2054" x1="256.973" y1="40.3543" x2="256.973" y2="114.052" gradientUnits="userSpaceOnUse">
<stop stop-color="#DB454E"/>
<stop offset="1" stop-color="#FF636C"/>
</linearGradient>
<linearGradient id="paint4_linear_106_2054" x1="384.269" y1="40.3543" x2="384.269" y2="114.052" gradientUnits="userSpaceOnUse">
<stop stop-color="#DB454E"/>
<stop offset="1" stop-color="#FF636C"/>
</linearGradient>
<linearGradient id="paint5_linear_106_2054" x1="320.925" y1="51.3173" x2="320.925" y2="204.194" gradientUnits="userSpaceOnUse">
<stop stop-color="#DB454E"/>
<stop offset="1" stop-color="#FF636C"/>
</linearGradient>
<linearGradient id="paint6_linear_106_2054" x1="129.296" y1="12.4826" x2="129.296" y2="101.329" gradientUnits="userSpaceOnUse">
<stop stop-color="#BD8B7D"/>
<stop offset="0.479167" stop-color="#D2A79B"/>
</linearGradient>
<linearGradient id="paint7_linear_106_2054" x1="282.757" y1="12.4826" x2="282.757" y2="101.329" gradientUnits="userSpaceOnUse">
<stop stop-color="#BD8B7D"/>
<stop offset="0.479167" stop-color="#D2A79B"/>
</linearGradient>
<linearGradient id="paint8_linear_106_2054" x1="206.393" y1="25.6992" x2="206.393" y2="210" gradientUnits="userSpaceOnUse">
<stop offset="0.526042" stop-color="#D2A79B"/>
<stop offset="1" stop-color="#A87567"/>
</linearGradient>
</defs>
</svg>
