<svg width="413" height="210" fill="none" xmlns="http://www.w3.org/2000/svg"><g opacity=".6"><ellipse cx="155.269" cy="77.203" rx="21.317" ry="36.849" fill="url(#prefix__paint0_linear_106_2054)"/><path fill-rule="evenodd" clip-rule="evenodd" d="M183.33 80.248c0 12.65-2.89 24.209-7.66 33.042a70.026 70.026 0 00-3.975-12.6c3.055-6.377 4.891-14.561 4.891-23.487 0-20.351-9.544-36.849-21.317-36.849-8.682 0-16.151 8.97-19.475 21.841a89.16 89.16 0 00-11.122-5.038C129.841 41.024 140.259 30 152.268 30c17.155 0 31.062 22.497 31.062 50.248z" fill="#7A8B92"/><path fill-rule="evenodd" clip-rule="evenodd" d="M58.714 57.332c-26.047 9.883-45.477 31.04-50.677 56.644C3.043 105.059 0 93.228 0 80.248 0 52.497 13.907 30 31.063 30c12.052 0 22.5 11.103 27.65 27.332zm-11.192 5.154c-16.281 8.92-28.965 22.597-35.647 38.875-3.251-6.468-5.22-14.916-5.22-24.158 0-20.351 9.544-36.849 21.318-36.849 8.746 0 16.262 9.106 19.549 22.132z" fill="#7B8B92"/><ellipse cx="27.973" cy="77.203" rx="21.317" ry="36.849" fill="url(#prefix__paint1_linear_106_2054)"/><ellipse cx="91.925" cy="127.756" rx="85.27" ry="76.438" fill="url(#prefix__paint2_linear_106_2054)"/><path fill-rule="evenodd" clip-rule="evenodd" d="M136.54 192.908c24.391-13.45 40.655-37.599 40.655-65.152 0-42.216-38.177-76.439-85.27-76.439-47.093 0-85.27 34.223-85.27 76.439 0 25.686 14.134 48.413 35.81 62.273-18.196-12.913-29.86-32.827-29.86-55.169 0-38.925 35.404-70.48 79.075-70.48 43.672 0 79.075 31.555 79.075 70.48 0 24.077-13.545 45.335-34.215 58.048z" fill="#7B8B92"/><path fill-rule="evenodd" clip-rule="evenodd" d="M58.714 57.332c-26.047 9.883-45.477 31.04-50.677 56.644C3.043 105.059 0 93.228 0 80.248 0 52.497 13.907 30 31.063 30c12.052 0 22.5 11.103 27.65 27.332zm-11.192 5.154c-16.281 8.92-28.965 22.597-35.647 38.875-3.251-6.468-5.22-14.916-5.22-24.158 0-20.351 9.544-36.849 21.318-36.849 8.746 0 16.262 9.106 19.549 22.132z" fill="#7B8B92"/><path fill-rule="evenodd" clip-rule="evenodd" d="M101.886 129.153c-5.079-6.878-15.363-6.878-20.442 0l-18.051 24.443a13.038 13.038 0 00-1.548 2.718L77.6 140.65c6.996-6.956 21.165-6.956 28.161 0l15.699 15.608a13.038 13.038 0 00-1.524-2.662l-18.051-24.443z" fill="#5D7179"/><ellipse cx="58.843" cy="125.004" rx="8.527" ry="10.354" transform="rotate(-4 58.843 125.004)" fill="#15313D"/><ellipse cx="124.622" cy="124.975" rx="8.527" ry="10.354" transform="rotate(4 124.622 124.975)" fill="#15313D"/><ellipse cx="91.451" cy="154.859" rx="13.399" ry="9.745" fill="#15313D"/><ellipse cx="256.973" cy="77.203" rx="21.317" ry="36.849" fill="url(#prefix__paint3_linear_106_2054)"/><ellipse cx="384.269" cy="77.203" rx="21.317" ry="36.849" fill="url(#prefix__paint4_linear_106_2054)"/><ellipse cx="320.925" cy="127.756" rx="85.27" ry="76.438" fill="url(#prefix__paint5_linear_106_2054)"/><path fill-rule="evenodd" clip-rule="evenodd" d="M365.54 192.909c24.391-13.451 40.655-37.6 40.655-65.153 0-42.216-38.177-76.439-85.27-76.439-47.093 0-85.27 34.223-85.27 76.439 0 25.686 14.134 48.414 35.811 62.273-18.197-12.913-29.86-32.827-29.86-55.169 0-38.925 35.403-70.48 79.075-70.48 43.671 0 79.074 31.555 79.074 70.48 0 24.077-13.545 45.335-34.215 58.049z" fill="#9C2E34"/><path fill-rule="evenodd" clip-rule="evenodd" d="M287.714 57.332c-26.047 9.883-45.477 31.04-50.677 56.644-4.994-8.917-8.037-20.747-8.037-33.728C229 52.497 242.907 30 260.063 30c12.052 0 22.501 11.103 27.651 27.332zm-11.192 5.154c-16.281 8.92-28.965 22.597-35.647 38.875-3.251-6.468-5.22-14.916-5.22-24.158 0-20.351 9.544-36.849 21.318-36.849 8.746 0 16.262 9.106 19.549 22.132z" fill="#9C2E34"/><path fill-rule="evenodd" clip-rule="evenodd" d="M330.886 129.153c-5.079-6.877-15.363-6.877-20.442 0l-18.051 24.444a13.003 13.003 0 00-1.548 2.718l15.756-15.665c6.996-6.956 21.165-6.956 28.161 0l15.7 15.608a13.117 13.117 0 00-1.525-2.662l-18.051-24.443z" fill="#872F34"/><ellipse cx="287.843" cy="125.004" rx="8.527" ry="10.354" transform="rotate(-4 287.843 125.004)" fill="#3F3030"/><ellipse cx="353.622" cy="124.975" rx="8.527" ry="10.354" transform="rotate(4 353.622 124.975)" fill="#3F3030"/><ellipse cx="320.451" cy="154.859" rx="13.399" ry="9.745" fill="#3F3030"/><path fill-rule="evenodd" clip-rule="evenodd" d="M412.33 80.248c0 12.65-2.89 24.209-7.66 33.042-5.437-25.448-24.951-46.413-50.998-56.133C358.841 41.024 369.259 30 381.268 30c17.155 0 31.062 22.497 31.062 50.248zm-6.744-3.045c0 8.926-1.836 17.11-4.89 23.487-6.827-16.16-19.59-29.704-35.902-38.495 3.324-12.87 10.793-21.84 19.475-21.84 11.773 0 21.317 16.497 21.317 36.848z" fill="#9C2E34"/></g><ellipse cx="129.296" cy="56.906" rx="25.699" ry="44.423" fill="url(#prefix__paint6_linear_106_2054)"/><ellipse cx="282.757" cy="56.906" rx="25.699" ry="44.423" fill="url(#prefix__paint7_linear_106_2054)"/><ellipse cx="206.393" cy="117.85" rx="102.797" ry="92.15" fill="url(#prefix__paint8_linear_106_2054)"/><path fill-rule="evenodd" clip-rule="evenodd" d="M260.181 196.394c29.404-16.215 49.01-45.327 49.01-78.544 0-50.894-46.024-92.15-102.798-92.15-56.773 0-102.797 41.256-102.797 92.15 0 30.966 17.04 58.365 43.172 75.074-21.937-15.567-35.998-39.575-35.998-66.51 0-46.926 42.68-84.967 95.329-84.967 52.649 0 95.329 38.041 95.329 84.967 0 29.026-16.33 54.653-41.247 69.98z" fill="#F2C4A9"/><path fill-rule="evenodd" clip-rule="evenodd" d="M109.89 86.03a84.12 84.12 0 00-4.628 15.208c-6.021-10.75-9.69-25.012-9.69-40.661C95.573 27.121 112.34 0 133.02 0c14.53 0 27.127 13.386 33.336 32.95a107.306 107.306 0 00-13.492 6.214c-3.963-15.704-13.024-26.681-23.568-26.681-14.194 0-25.7 19.888-25.7 44.423 0 11.142 2.373 21.326 6.294 29.124z" fill="#F2C4A9"/><path fill-rule="evenodd" clip-rule="evenodd" d="M218.402 119.534c-6.123-8.291-18.522-8.291-24.644 0l-21.762 29.468a15.726 15.726 0 00-1.866 3.276l18.994-18.883c8.435-8.386 25.515-8.386 33.95 0l18.927 18.817a15.694 15.694 0 00-1.838-3.21l-21.761-29.468z" fill="#BD8B7D"/><ellipse cx="166.511" cy="114.532" rx="10.28" ry="12.482" transform="rotate(-4 166.511 114.532)" fill="#322D31"/><ellipse cx="245.811" cy="114.498" rx="10.28" ry="12.482" transform="rotate(4 245.811 114.498)" fill="#322D31"/><ellipse cx="205.822" cy="150.524" rx="16.154" ry="11.748" fill="#322D31"/><path fill-rule="evenodd" clip-rule="evenodd" d="M316.587 60.577c0 15.25-3.484 29.184-9.234 39.833a84.325 84.325 0 00-4.792-15.19c3.682-7.687 5.895-17.554 5.895-28.314 0-24.535-11.506-44.423-25.699-44.423-10.466 0-19.47 10.814-23.478 26.33a107.489 107.489 0 00-13.408-6.074C252.103 13.29 264.662 0 279.139 0c20.682 0 37.448 27.121 37.448 60.577z" fill="#F2C4A9"/><defs><linearGradient id="prefix__paint0_linear_106_2054" x1="155.269" y1="40.354" x2="155.269" y2="114.052" gradientUnits="userSpaceOnUse"><stop stop-color="#87A1B1"/><stop offset="1" stop-color="#CFD8DC"/></linearGradient><linearGradient id="prefix__paint1_linear_106_2054" x1="27.973" y1="40.354" x2="27.973" y2="114.052" gradientUnits="userSpaceOnUse"><stop stop-color="#87A1B1"/><stop offset="1" stop-color="#CFD8DC"/></linearGradient><linearGradient id="prefix__paint2_linear_106_2054" x1="91.925" y1="51.317" x2="91.925" y2="204.194" gradientUnits="userSpaceOnUse"><stop stop-color="#CFD8DC"/><stop offset="1" stop-color="#87A1B1"/></linearGradient><linearGradient id="prefix__paint3_linear_106_2054" x1="256.973" y1="40.354" x2="256.973" y2="114.052" gradientUnits="userSpaceOnUse"><stop stop-color="#DB454E"/><stop offset="1" stop-color="#FF636C"/></linearGradient><linearGradient id="prefix__paint4_linear_106_2054" x1="384.269" y1="40.354" x2="384.269" y2="114.052" gradientUnits="userSpaceOnUse"><stop stop-color="#DB454E"/><stop offset="1" stop-color="#FF636C"/></linearGradient><linearGradient id="prefix__paint5_linear_106_2054" x1="320.925" y1="51.317" x2="320.925" y2="204.194" gradientUnits="userSpaceOnUse"><stop stop-color="#DB454E"/><stop offset="1" stop-color="#FF636C"/></linearGradient><linearGradient id="prefix__paint6_linear_106_2054" x1="129.296" y1="12.483" x2="129.296" y2="101.329" gradientUnits="userSpaceOnUse"><stop stop-color="#BD8B7D"/><stop offset=".479" stop-color="#D2A79B"/></linearGradient><linearGradient id="prefix__paint7_linear_106_2054" x1="282.757" y1="12.483" x2="282.757" y2="101.329" gradientUnits="userSpaceOnUse"><stop stop-color="#BD8B7D"/><stop offset=".479" stop-color="#D2A79B"/></linearGradient><linearGradient id="prefix__paint8_linear_106_2054" x1="206.393" y1="25.699" x2="206.393" y2="210" gradientUnits="userSpaceOnUse"><stop offset=".526" stop-color="#D2A79B"/><stop offset="1" stop-color="#A87567"/></linearGradient></defs></svg>