<svg width="32" height="32" fill="none" xmlns="http://www.w3.org/2000/svg"><g transform="matrix(.20004 0 0 .20004 0 -.003)"><ellipse cx="24.409" cy="45.189" rx="18.601" ry="32.154" fill="url(#prefix__paint0_linear_32_2141)"/><ellipse cx="135.486" cy="45.189" rx="18.601" ry="32.154" fill="url(#prefix__paint1_linear_32_2141)"/><ellipse cx="80.213" cy="89.301" rx="74.406" ry="66.699" fill="url(#prefix__paint2_linear_32_2141)"/><path fill-rule="evenodd" clip-rule="evenodd" d="M119.145 146.152c21.283-11.737 35.474-32.809 35.474-56.851 0-36.837-33.313-66.7-74.406-66.7S5.808 52.464 5.808 89.301c0 22.414 12.333 42.246 31.248 54.339C21.178 132.373 11 114.996 11 95.5 11 61.535 41.892 34 80 34c38.108 0 69 27.535 69 61.5 0 21.009-11.819 39.558-29.855 50.652z" fill="#f2c4a9"/><path fill-rule="evenodd" clip-rule="evenodd" d="M10.363 66.27a60.885 60.885 0 00-3.35 11.007C2.655 69.497 0 59.173 0 47.847 0 23.63 12.135 4 27.105 4c10.517 0 19.634 9.689 24.128 23.85a77.681 77.681 0 00-9.765 4.497C38.6 20.98 32.04 13.035 24.409 13.035c-10.273 0-18.601 14.396-18.601 32.154 0 8.065 1.717 15.436 4.555 21.08z" fill="#f2c4a9"/><path fill-rule="evenodd" clip-rule="evenodd" d="M88.905 90.52c-4.432-6.001-13.406-6.001-17.838 0l-15.75 21.329a11.39 11.39 0 00-1.351 2.371l13.747-13.668c6.106-6.07 18.469-6.07 24.574 0l13.7 13.621a11.418 11.418 0 00-1.331-2.324z" fill="#bd8b7d"/><ellipse cx="45.159" cy="90.269" rx="7.441" ry="9.035" transform="rotate(-4)" fill="#322d31"/><ellipse cx="114.539" cy="79.077" rx="7.441" ry="9.035" transform="rotate(4)" fill="#322d31"/><ellipse cx="79.799" cy="112.951" rx="11.692" ry="8.504" fill="#322d31"/><path fill-rule="evenodd" clip-rule="evenodd" d="M159.972 47.846c0 11.039-2.522 21.124-6.684 28.832-4.745-22.206-21.773-40.5-44.501-48.981C113.298 13.619 122.388 4 132.867 4c14.97 0 27.105 19.63 27.105 43.846zm-5.885-2.657c0 7.788-1.602 14.93-4.267 20.494-5.957-14.1-17.094-25.92-31.328-33.59 2.901-11.23 9.419-19.058 16.994-19.058 10.273 0 18.601 14.396 18.601 32.154z" fill="#f2c4a9"/></g><defs id="prefix__defs37"><linearGradient id="prefix__paint0_linear_32_2141" x1="24.409" y1="9.035" x2="24.409" y2="73.343" gradientUnits="userSpaceOnUse" gradientTransform="translate(0 4)"><stop stop-color="#BD8B7D" id="prefix__stop22"/><stop offset=".479" stop-color="#D2A79B" id="prefix__stop24"/></linearGradient><linearGradient id="prefix__paint1_linear_32_2141" x1="135.486" y1="9.035" x2="135.486" y2="73.343" gradientUnits="userSpaceOnUse" gradientTransform="translate(0 4)"><stop stop-color="#BD8B7D" id="prefix__stop27"/><stop offset=".479" stop-color="#D2A79B" id="prefix__stop29"/></linearGradient><linearGradient id="prefix__paint2_linear_32_2141" x1="80.213" y1="18.601" x2="80.213" y2="152" gradientUnits="userSpaceOnUse" gradientTransform="translate(0 4)"><stop offset=".526" stop-color="#D2A79B" id="prefix__stop32"/><stop offset="1" stop-color="#A87567" id="prefix__stop34"/></linearGradient></defs></svg>